<svg width="24" height="24" viewBox="0 0 24 24" fill="none" xmlns="http://www.w3.org/2000/svg">
<path fill-rule="evenodd" clip-rule="evenodd" d="M5.62699 22.087C5.64875 22.3362 5.7631 22.5681 5.94747 22.7372C6.13185 22.9062 6.37287 22.9999 6.62299 23H17.586C17.8361 22.9999 18.0771 22.9062 18.2615 22.7372C18.4459 22.5681 18.5602 22.3362 18.582 22.087L18.834 19.193L19.551 10.969L19.667 9.631H4.54199L5.62699 22.087V22.087ZM20.804 4.53H19.207L18.118 1.666C18.0434 1.47019 17.9111 1.30165 17.7386 1.18271C17.5661 1.06378 17.3615 1.00006 17.152 1H7.05799C6.62799 1 6.24399 1.265 6.09099 1.666L5.00199 4.53H3.19699C3.06438 4.53 2.93721 4.58268 2.84344 4.67645C2.74967 4.77021 2.69699 4.89739 2.69699 5.03V7.131C2.69699 7.26361 2.74967 7.39079 2.84344 7.48455C2.93721 7.57832 3.06438 7.631 3.19699 7.631H20.804C20.9366 7.631 21.0638 7.57832 21.1575 7.48455C21.2513 7.39079 21.304 7.26361 21.304 7.131V5.03C21.304 4.89739 21.2513 4.77021 21.1575 4.67645C21.0638 4.58268 20.9366 4.53 20.804 4.53Z" fill="#8B95A1"/>
</svg>
