<svg width="24" height="24" viewBox="0 0 24 24" fill="none" xmlns="http://www.w3.org/2000/svg">
<g clip-path="url(#clip0_807_2839)">
<path fill-rule="evenodd" clip-rule="evenodd" d="M6.91498 15.88V8.92102H4.51498V15.881C4.51498 17.865 6.12998 19.481 8.11498 19.481H15.073V17.081H8.11498C7.45298 17.081 6.91498 16.542 6.91498 15.881" fill="#8B95A1"/>
<path fill-rule="evenodd" clip-rule="evenodd" d="M22.273 17.08H19.473V8.12104C19.4719 7.16649 19.0923 6.25133 18.4175 5.57627C17.7426 4.90121 16.8275 4.52136 15.873 4.52004H6.91499V1.72104C6.90597 1.40864 6.77553 1.11206 6.55138 0.894288C6.32723 0.676511 6.02701 0.554688 5.71449 0.554688C5.40196 0.554688 5.10175 0.676511 4.87759 0.894288C4.65344 1.11206 4.523 1.40864 4.51399 1.72104V4.52004H1.71399C1.40159 4.52905 1.10502 4.65949 0.887239 4.88364C0.669462 5.10779 0.547638 5.40801 0.547638 5.72054C0.547638 6.03306 0.669462 6.33328 0.887239 6.55743C1.10502 6.78158 1.40159 6.91202 1.71399 6.92104H15.873C16.535 6.92104 17.073 7.45904 17.073 8.12104V22.28C17.073 22.4376 17.104 22.5937 17.1643 22.7393C17.2246 22.8848 17.313 23.0171 17.4245 23.1286C17.5359 23.24 17.6682 23.3284 17.8138 23.3887C17.9594 23.449 18.1154 23.48 18.273 23.48C18.4306 23.48 18.5866 23.449 18.7322 23.3887C18.8778 23.3284 19.0101 23.24 19.1215 23.1286C19.2329 23.0171 19.3213 22.8848 19.3816 22.7393C19.4419 22.5937 19.473 22.4376 19.473 22.28V19.48H22.273C22.4306 19.48 22.5866 19.449 22.7322 19.3887C22.8778 19.3284 23.0101 19.24 23.1215 19.1286C23.2329 19.0171 23.3213 18.8848 23.3816 18.7393C23.4419 18.5937 23.473 18.4376 23.473 18.28C23.473 18.1225 23.4419 17.9664 23.3816 17.8208C23.3213 17.6752 23.2329 17.5429 23.1215 17.4315C23.0101 17.3201 22.8778 17.2317 22.7322 17.1714C22.5866 17.1111 22.4306 17.08 22.273 17.08Z" fill="#8B95A1"/>
</g>
<defs>
<clipPath id="clip0_807_2839">
<rect width="24" height="24" fill="white"/>
</clipPath>
</defs>
</svg>
