<svg width="24" height="24" viewBox="0 0 24 24" fill="none" xmlns="http://www.w3.org/2000/svg">
<path fill-rule="evenodd" clip-rule="evenodd" d="M22 10.9H1.99999C1.70826 10.9 1.42847 11.0159 1.22218 11.2222C1.01589 11.4285 0.899994 11.7083 0.899994 12C0.899994 12.2918 1.01589 12.5716 1.22218 12.7778C1.42847 12.9841 1.70826 13.1 1.99999 13.1H22C22.2917 13.1 22.5715 12.9841 22.7778 12.7778C22.9841 12.5716 23.1 12.2918 23.1 12C23.1 11.7083 22.9841 11.4285 22.7778 11.2222C22.5715 11.0159 22.2917 10.9 22 10.9M3.99999 9.10002C4.29173 9.10002 4.57152 8.98413 4.77781 8.77784C4.9841 8.57155 5.09999 8.29176 5.09999 8.00002V5.20002C5.09999 5.1735 5.11053 5.14807 5.12928 5.12931C5.14804 5.11056 5.17347 5.10002 5.19999 5.10002H7.99999C8.29173 5.10002 8.57152 4.98413 8.77781 4.77784C8.9841 4.57155 9.09999 4.29176 9.09999 4.00002C9.09999 3.70829 8.9841 3.4285 8.77781 3.22221C8.57152 3.01592 8.29173 2.90002 7.99999 2.90002H5.19999C4.59024 2.90082 4.00569 3.14339 3.57452 3.57456C3.14336 4.00572 2.90079 4.59027 2.89999 5.20002V8.00002C2.89999 8.29176 3.01589 8.57155 3.22218 8.77784C3.42847 8.98413 3.70826 9.10002 3.99999 9.10002ZM7.99999 18.9H5.19999C5.18686 18.9 5.17386 18.8974 5.16173 18.8924C5.14959 18.8874 5.13857 18.88 5.12928 18.8707C5.12 18.8614 5.11263 18.8504 5.10761 18.8383C5.10258 18.8262 5.09999 18.8132 5.09999 18.8V16C5.09999 15.7083 4.9841 15.4285 4.77781 15.2222C4.57152 15.0159 4.29173 14.9 3.99999 14.9C3.70826 14.9 3.42847 15.0159 3.22218 15.2222C3.01589 15.4285 2.89999 15.7083 2.89999 16V18.8C2.89999 20.068 3.93199 21.1 5.19999 21.1H7.99999C8.29173 21.1 8.57152 20.9841 8.77781 20.7778C8.9841 20.5716 9.09999 20.2918 9.09999 20C9.09999 19.7083 8.9841 19.4285 8.77781 19.2222C8.57152 19.0159 8.29173 18.9 7.99999 18.9M16 5.10002H18.8C18.8265 5.10002 18.852 5.11056 18.8707 5.12931C18.8895 5.14807 18.9 5.1735 18.9 5.20002V8.00002C18.9 8.29176 19.0159 8.57155 19.2222 8.77784C19.4285 8.98413 19.7083 9.10002 20 9.10002C20.2917 9.10002 20.5715 8.98413 20.7778 8.77784C20.9841 8.57155 21.1 8.29176 21.1 8.00002V5.20002C21.1 3.93202 20.068 2.90002 18.8 2.90002H16C15.7083 2.90002 15.4285 3.01592 15.2222 3.22221C15.0159 3.4285 14.9 3.70829 14.9 4.00002C14.9 4.29176 15.0159 4.57155 15.2222 4.77784C15.4285 4.98413 15.7083 5.10002 16 5.10002M20 14.9C19.8555 14.9 19.7125 14.9285 19.579 14.9838C19.4456 15.039 19.3243 15.1201 19.2222 15.2222C19.12 15.3244 19.039 15.4456 18.9837 15.5791C18.9284 15.7125 18.9 15.8556 18.9 16V18.8C18.9 18.8132 18.8974 18.8262 18.8924 18.8383C18.8874 18.8504 18.88 18.8614 18.8707 18.8707C18.8614 18.88 18.8504 18.8874 18.8383 18.8924C18.8261 18.8974 18.8131 18.9 18.8 18.9H16C15.7083 18.9 15.4285 19.0159 15.2222 19.2222C15.0159 19.4285 14.9 19.7083 14.9 20C14.9 20.2918 15.0159 20.5716 15.2222 20.7778C15.4285 20.9841 15.7083 21.1 16 21.1H18.8C20.068 21.1 21.1 20.068 21.1 18.8V16C21.1 15.7083 20.9841 15.4285 20.7778 15.2222C20.5715 15.0159 20.2917 14.9 20 14.9" fill="#8B95A1"/>
</svg>
