<svg width="24" height="24" viewBox="0 0 24 24" fill="none" xmlns="http://www.w3.org/2000/svg">
<path fill-rule="evenodd" clip-rule="evenodd" d="M16.637 8.67298L11.037 14.273L7.36399 10.6C7.20712 10.4288 7.12237 10.2037 7.12742 9.97159C7.13247 9.73947 7.22694 9.51826 7.39111 9.35409C7.55528 9.18992 7.77649 9.09546 8.00861 9.09041C8.24072 9.08536 8.46583 9.1701 8.63699 9.32698L11.037 11.727L15.364 7.39998C15.4476 7.31639 15.5468 7.25009 15.656 7.20485C15.7652 7.15961 15.8823 7.13633 16.0005 7.13633C16.1187 7.13633 16.2358 7.15961 16.345 7.20485C16.4542 7.25009 16.5534 7.31639 16.637 7.39998C16.7206 7.48356 16.7869 7.58279 16.8321 7.69201C16.8774 7.80122 16.9006 7.91827 16.9006 8.03648C16.9006 8.15469 16.8774 8.27174 16.8321 8.38095C16.7869 8.49016 16.7206 8.58939 16.637 8.67298V8.67298ZM21.147 10.57C21.2407 10.4762 21.2934 10.3491 21.2934 10.2165C21.2934 10.0839 21.2407 9.95674 21.147 9.86298L19.697 8.41298C19.6348 8.35099 19.5901 8.27366 19.5675 8.18884C19.5448 8.10401 19.545 8.01471 19.568 7.92998L20.098 5.94998C20.1322 5.82188 20.1141 5.68544 20.0477 5.57068C19.9813 5.45591 19.8721 5.37221 19.744 5.33798L17.764 4.80798C17.679 4.7852 17.6014 4.74039 17.5393 4.67805C17.4771 4.61572 17.4325 4.53808 17.41 4.45298L16.88 2.47298C16.8455 2.34481 16.7616 2.23555 16.6467 2.16918C16.5318 2.10282 16.3952 2.08476 16.267 2.11898L14.286 2.64998C14.2013 2.67265 14.1122 2.67256 14.0275 2.64974C13.9429 2.62691 13.8658 2.58215 13.804 2.51998L12.354 1.06998C12.2602 0.976242 12.1331 0.923584 12.0005 0.923584C11.8679 0.923584 11.7408 0.976242 11.647 1.06998L10.197 2.52098C10.1349 2.58306 10.0576 2.62775 9.97288 2.65057C9.88811 2.67338 9.79883 2.67352 9.71399 2.65098L7.73399 2.11898C7.6705 2.1019 7.60426 2.09751 7.53906 2.10606C7.47387 2.11462 7.411 2.13594 7.35406 2.16883C7.29712 2.20171 7.24723 2.2455 7.20724 2.29769C7.16724 2.34988 7.13793 2.40945 7.12099 2.47298L6.58999 4.45298C6.56739 4.53777 6.52287 4.61512 6.46091 4.67726C6.39895 4.7394 6.32172 4.78414 6.23699 4.80698L4.25599 5.33798C4.12809 5.37242 4.01908 5.45621 3.95289 5.57096C3.88671 5.6857 3.86876 5.82201 3.90299 5.94998L4.43299 7.92998C4.45597 8.01471 4.45615 8.10401 4.43349 8.18884C4.41084 8.27366 4.36616 8.35099 4.30399 8.41298L2.85399 9.86298C2.80746 9.90934 2.77054 9.96443 2.74535 10.0251C2.72015 10.0858 2.70718 10.1508 2.70718 10.2165C2.70718 10.2822 2.72015 10.3472 2.74535 10.4079C2.77054 10.4685 2.80746 10.5236 2.85399 10.57L4.30399 12.02C4.36616 12.0822 4.41082 12.1597 4.43347 12.2447C4.45612 12.3296 4.45595 12.4191 4.43299 12.504L3.90299 14.484C3.86876 14.6119 3.88671 14.7483 3.95289 14.863C4.01908 14.9777 4.12809 15.0615 4.25599 15.096L6.23699 15.627C6.32172 15.6498 6.39895 15.6946 6.46091 15.7567C6.52287 15.8188 6.56739 15.8962 6.58999 15.981L7.11999 17.961C7.13753 18.0252 7.16771 18.0852 7.20875 18.1376C7.24979 18.1899 7.30087 18.2336 7.35899 18.266L5.49799 23.283H10.681L12 19.725L13.321 23.283H18.503L16.642 18.266C16.7001 18.2337 16.7511 18.1901 16.792 18.1377C16.8329 18.0853 16.8628 18.0252 16.88 17.961L17.41 15.981C17.4326 15.896 17.4772 15.8185 17.5394 15.7564C17.6016 15.6942 17.679 15.6496 17.764 15.627L19.744 15.097C19.8075 15.08 19.8671 15.0507 19.9193 15.0107C19.9715 14.9707 20.0153 14.9208 20.0481 14.8639C20.081 14.807 20.1024 14.7441 20.1109 14.6789C20.1195 14.6137 20.1151 14.5475 20.098 14.484L19.568 12.504C19.545 12.4192 19.5448 12.3299 19.5675 12.2451C19.5901 12.1603 19.6348 12.083 19.697 12.021L21.147 10.571V10.57Z" fill="#8B95A1"/>
</svg>
