<svg width="24" height="24" viewBox="0 0 24 24" fill="none" xmlns="http://www.w3.org/2000/svg">
<path fill-rule="evenodd" clip-rule="evenodd" d="M14.923 14.1231C14.8227 14.1195 14.7226 14.1361 14.6289 14.1721C14.5351 14.208 14.4496 14.2624 14.3773 14.3322C14.3051 14.4019 14.2477 14.4855 14.2085 14.5779C14.1693 14.6703 14.1491 14.7697 14.1492 14.8701C14.1492 14.9705 14.1695 15.0699 14.2089 15.1622C14.2482 15.2546 14.3057 15.3381 14.3781 15.4077C14.4504 15.4774 14.536 15.5317 14.6298 15.5675C14.7236 15.6033 14.8237 15.6198 14.924 15.6161C15.1172 15.6089 15.3002 15.527 15.4343 15.3877C15.5684 15.2484 15.6433 15.0625 15.6432 14.8691C15.643 14.6757 15.5679 14.4899 15.4336 14.3508C15.2993 14.2117 15.1162 14.13 14.923 14.1231M9.82299 9.02309C9.82659 8.92276 9.80993 8.82273 9.77401 8.72898C9.73809 8.63523 9.68363 8.54968 9.6139 8.47745C9.54417 8.40522 9.4606 8.34778 9.36817 8.30858C9.27575 8.26937 9.17636 8.2492 9.07597 8.24927C8.97557 8.24933 8.87622 8.26964 8.78384 8.30897C8.69147 8.3483 8.60797 8.40584 8.53834 8.47817C8.46871 8.55049 8.41437 8.63611 8.37857 8.72991C8.34277 8.82371 8.32625 8.92376 8.32999 9.02409C8.33706 9.21735 8.41881 9.40033 8.55803 9.53455C8.69725 9.66877 8.8831 9.74376 9.07649 9.74376C9.26987 9.74376 9.45572 9.66877 9.59494 9.53455C9.73417 9.40033 9.81591 9.21735 9.82299 9.02409" fill="#8B95A1"/>
<path fill-rule="evenodd" clip-rule="evenodd" d="M14.923 17.214C14.301 17.2135 13.7046 16.9661 13.2647 16.5263C12.8249 16.0864 12.5775 15.49 12.577 14.868C12.5778 14.2461 12.8252 13.65 13.2651 13.2104C13.7049 12.7707 14.3011 12.5235 14.923 12.523C15.5448 12.5238 16.1409 12.7711 16.5806 13.2107C17.0204 13.6502 17.2679 14.2462 17.269 14.868C17.2682 15.49 17.0208 16.0862 16.581 16.526C16.1412 16.9658 15.545 17.2132 14.923 17.214V17.214ZM8.994 16.083C8.91967 16.1573 8.83144 16.2162 8.73435 16.2563C8.63727 16.2965 8.53322 16.3171 8.42815 16.3171C8.32308 16.317 8.21905 16.2963 8.12199 16.2561C8.02494 16.2158 7.93676 16.1568 7.8625 16.0825C7.78824 16.0082 7.72934 15.9199 7.68918 15.8229C7.64901 15.7258 7.62836 15.6217 7.62841 15.5166C7.62846 15.4116 7.6492 15.3075 7.68945 15.2105C7.7297 15.1134 7.78867 15.0253 7.863 14.951L15.006 7.808C15.159 7.67297 15.3577 7.60133 15.5617 7.60769C15.7656 7.61404 15.9595 7.69791 16.1038 7.8422C16.2481 7.98649 16.332 8.18036 16.3383 8.38433C16.3447 8.58829 16.273 8.787 16.138 8.94L8.994 16.083V16.083ZM6.732 9.023C6.73279 8.40122 6.98008 7.80512 7.41965 7.36536C7.85922 6.9256 8.45522 6.67806 9.077 6.677C9.69905 6.67779 10.2954 6.92518 10.7354 7.36494C11.1753 7.8047 11.4229 8.40095 11.424 9.023C11.4232 9.64513 11.1756 10.2415 10.7356 10.6813C10.2956 11.1212 9.69913 11.3685 9.077 11.369C8.45514 11.3682 7.85899 11.1208 7.41936 10.6809C6.97973 10.2411 6.73253 9.64486 6.732 9.023ZM12 1C5.925 1 1 5.924 1 12C1 18.075 5.925 23 12 23C18.075 23 23 18.075 23 12C23 5.924 18.075 1 12 1Z" fill="#8B95A1"/>
</svg>
