<svg width="24" height="24" viewBox="0 0 24 24" fill="none" xmlns="http://www.w3.org/2000/svg">
<path d="M4.6 9.09995H2.2V5.39995C2.2 3.59995 3.6 2.19995 5.4 2.19995H9.2V4.59995H5.4C5 4.59995 4.6 4.99995 4.6 5.39995V9.09995V9.09995ZM9.1 21.7999H5.4C3.6 21.7999 2.2 20.4 2.2 18.6V14.8H4.6V18.6C4.6 19 5 19.4 5.4 19.4H9.2V21.7999H9.1ZM18.6 21.7999H14.8V19.4H18.6C19 19.4 19.4 19 19.4 18.6V14.8H21.8V18.6C21.8 20.4 20.4 21.7999 18.6 21.7999ZM21.8 9.09995H19.4V5.39995C19.4 4.99995 19 4.59995 18.6 4.59995H14.8V2.19995H18.6C20.4 2.19995 21.8 3.59995 21.8 5.39995V9.09995V9.09995Z" fill="#8B95A1"/>
</svg>
