<svg width="24" height="24" viewBox="0 0 24 24" fill="none" xmlns="http://www.w3.org/2000/svg">
<path fill-rule="evenodd" clip-rule="evenodd" d="M8.625 20.1001C8.28 20.1001 7.935 19.9651 7.665 19.7101C7.4131 19.4571 7.27168 19.1146 7.27168 18.7576C7.27168 18.4005 7.4131 18.0581 7.665 17.8051L13.47 12.0001L7.665 6.21006C7.4131 5.95706 7.27168 5.61458 7.27168 5.25756C7.27168 4.90054 7.4131 4.55806 7.665 4.30506C7.918 4.05316 8.26048 3.91174 8.6175 3.91174C8.97452 3.91174 9.317 4.05316 9.57 4.30506L16.32 11.0551C16.5719 11.3081 16.7133 11.6505 16.7133 12.0076C16.7133 12.3646 16.5719 12.7071 16.32 12.9601L9.57 19.7101C9.315 19.9651 8.97 20.1001 8.625 20.1001" fill="#8B95A1"/>
</svg>
