<svg width="24" height="24" viewBox="0 0 24 24" fill="none" xmlns="http://www.w3.org/2000/svg">
<path fill-rule="evenodd" clip-rule="evenodd" d="M5.23 14C4.96729 14 4.70716 13.9481 4.46448 13.8476C4.22179 13.747 4.00129 13.5995 3.81558 13.4137C3.62986 13.2279 3.48256 13.0074 3.38208 12.7646C3.28161 12.5219 3.22993 12.2617 3.23 11.999C3.23006 11.7363 3.28187 11.4762 3.38247 11.2335C3.48306 10.9908 3.63047 10.7703 3.81628 10.5846C4.00209 10.3989 4.22266 10.2516 4.4654 10.1511C4.70814 10.0506 4.96829 9.99896 5.231 9.99902C5.76156 9.99916 6.27034 10.21 6.64542 10.5853C7.02049 10.9606 7.23113 11.4695 7.231 12C7.23086 12.5306 7.01997 13.0394 6.64471 13.4144C6.26945 13.7895 5.76056 14.0002 5.23 14M12.001 14C11.4706 14 10.9619 13.7893 10.5868 13.4142C10.2117 13.0392 10.001 12.5305 10.001 12C10.001 11.4696 10.2117 10.9609 10.5868 10.5858C10.9619 10.2107 11.4706 10 12.001 10C12.5314 10 13.0401 10.2107 13.4152 10.5858C13.7903 10.9609 14.001 11.4696 14.001 12C14.001 12.5305 13.7903 13.0392 13.4152 13.4142C13.0401 13.7893 12.5314 14 12.001 14ZM18.771 14C18.5083 14 18.2482 13.9481 18.0055 13.8476C17.7628 13.747 17.5423 13.5995 17.3566 13.4137C17.1709 13.2279 17.0236 13.0074 16.9231 12.7646C16.8226 12.5219 16.7709 12.2617 16.771 11.999C16.7711 11.7363 16.8229 11.4762 16.9235 11.2335C17.0241 10.9908 17.1715 10.7703 17.3573 10.5846C17.5431 10.3989 17.7637 10.2516 18.0064 10.1511C18.2491 10.0506 18.5093 9.99896 18.772 9.99902C19.3026 9.99916 19.8113 10.21 20.1864 10.5853C20.5615 10.9606 20.7721 11.4695 20.772 12C20.7719 12.5306 20.561 13.0394 20.1857 13.4144C19.8104 13.7895 19.3016 14.0002 18.771 14" fill="#8B95A1"/>
</svg>
