<svg width="24" height="24" viewBox="0 0 24 24" fill="none" xmlns="http://www.w3.org/2000/svg">
<path d="M14.779 4.67197C13.871 4.45397 12.943 4.32397 12 4.32397C7.78801 4.32397 3.80501 6.58498 1.18201 10.352C0.498006 11.334 0.498006 12.667 1.18201 13.649C1.82201 14.568 2.54501 15.393 3.33001 16.122L14.779 4.67197Z" fill="#8B95A1"/>
<path d="M22.819 10.352C21.769 8.84396 20.494 7.59096 19.079 6.61896L21.648 4.04996C22.117 3.58096 22.117 2.82096 21.648 2.35296C21.179 1.88496 20.419 1.88396 19.951 2.35296L2.35201 19.95C1.88301 20.419 1.88301 21.179 2.35201 21.647C2.58601 21.881 2.89401 21.999 3.20101 21.999C3.50801 21.999 3.81501 21.882 4.05001 21.647L7.09401 18.603C8.64301 19.294 10.3 19.676 12 19.676C16.213 19.676 20.196 17.415 22.819 13.648C23.502 12.667 23.502 11.334 22.819 10.352V10.352ZM11.999 15.974C11.34 15.974 10.725 15.803 10.18 15.516L15.515 10.181C15.802 10.726 15.973 11.34 15.973 11.999C15.973 14.192 14.19 15.974 11.999 15.974V15.974Z" fill="#8B95A1"/>
</svg>
