<svg width="24" height="24" viewBox="0 0 24 24" fill="none" xmlns="http://www.w3.org/2000/svg">
<g clip-path="url(#clip0_807_2844)">
<path fill-rule="evenodd" clip-rule="evenodd" d="M12 0.612061C10.8065 0.612061 9.66193 1.08617 8.81802 1.93008C7.97411 2.77399 7.5 3.91859 7.5 5.11206V11.3151C7.5 12.5085 7.97411 13.6531 8.81802 14.497C9.66193 15.341 10.8065 15.8151 12 15.8151C13.1935 15.8151 14.3381 15.341 15.182 14.497C16.0259 13.6531 16.5 12.5085 16.5 11.3151V5.11206C16.5 3.91859 16.0259 2.77399 15.182 1.93008C14.3381 1.08617 13.1935 0.612061 12 0.612061" fill="#8B95A1"/>
<path fill-rule="evenodd" clip-rule="evenodd" d="M20.601 11.3151C20.601 11.0498 20.4956 10.7955 20.3081 10.608C20.1206 10.4204 19.8662 10.3151 19.601 10.3151C19.3358 10.3151 19.0814 10.4204 18.8939 10.608C18.7064 10.7955 18.601 11.0498 18.601 11.3151C18.5991 13.0652 17.9031 14.7431 16.6656 15.9806C15.428 17.2182 13.7501 17.9142 12 17.9161C10.2502 17.9139 8.57271 17.2179 7.33543 15.9806C6.09815 14.7433 5.40211 13.0658 5.39999 11.3161C5.39999 11.0508 5.29464 10.7965 5.1071 10.609C4.91956 10.4214 4.66521 10.3161 4.39999 10.3161C4.13478 10.3161 3.88042 10.4214 3.69289 10.609C3.50535 10.7965 3.39999 11.0508 3.39999 11.3161C3.39999 15.7191 6.72799 19.3561 11 19.8531V23.0001C11 23.2653 11.1054 23.5196 11.2929 23.7072C11.4804 23.8947 11.7348 24.0001 12 24.0001C12.2652 24.0001 12.5196 23.8947 12.7071 23.7072C12.8946 23.5196 13 23.2653 13 23.0001V19.8531C17.273 19.3551 20.601 15.7191 20.601 11.3151" fill="#8B95A1"/>
</g>
<defs>
<clipPath id="clip0_807_2844">
<rect width="24" height="24" fill="white"/>
</clipPath>
</defs>
</svg>
