<svg width="24" height="24" viewBox="0 0 24 24" fill="none" xmlns="http://www.w3.org/2000/svg">
<path fill-rule="evenodd" clip-rule="evenodd" d="M19.735 3.81204V1.70804C19.7343 1.6165 19.7091 1.52682 19.662 1.44831C19.6149 1.3698 19.5477 1.30531 19.4673 1.26154C19.3869 1.21777 19.2962 1.19631 19.2048 1.19939C19.1133 1.20246 19.0243 1.22997 18.947 1.27904C14.75 3.90104 13.67 10.171 13.4 12.71C13.3857 12.849 13.4008 12.9894 13.4442 13.1221C13.4877 13.2548 13.5586 13.3769 13.6524 13.4805C13.7461 13.584 13.8606 13.6667 13.9883 13.7231C14.1161 13.7796 14.2543 13.8085 14.394 13.808L16.974 13.812L16.696 21.878C16.6886 22.0822 16.7224 22.2857 16.7954 22.4764C16.8684 22.6672 16.9791 22.8413 17.1209 22.9883C17.2627 23.1353 17.4326 23.2523 17.6206 23.3321C17.8086 23.412 18.0107 23.4532 18.215 23.4532C18.4192 23.4532 18.6214 23.412 18.8094 23.3321C18.9974 23.2523 19.1673 23.1353 19.3091 22.9883C19.4509 22.8413 19.5616 22.6672 19.6346 22.4764C19.7076 22.2857 19.7414 22.0822 19.734 21.878V3.81204H19.735ZM11.388 1.01904C11.1228 1.01904 10.8684 1.1244 10.6809 1.31194C10.4933 1.49947 10.388 1.75383 10.388 2.01904V6.18204C10.388 6.24404 10.375 6.30204 10.373 6.36304H8.59199V2.01904C8.59199 1.75383 8.48663 1.49947 8.2991 1.31194C8.11156 1.1244 7.85721 1.01904 7.59199 1.01904C7.32677 1.01904 7.07242 1.1244 6.88488 1.31194C6.69735 1.49947 6.59199 1.75383 6.59199 2.01904V6.36304H4.81099C4.80899 6.30204 4.79599 6.24404 4.79599 6.18204V2.01904C4.79599 1.75383 4.69063 1.49947 4.5031 1.31194C4.31556 1.1244 4.06121 1.01904 3.79599 1.01904C3.53077 1.01904 3.27642 1.1244 3.08888 1.31194C2.90135 1.49947 2.79599 1.75383 2.79599 2.01904V6.18204C2.79599 8.75304 4.37299 10.909 6.48499 11.479L6.07299 21.88C6.06779 22.0829 6.10324 22.2847 6.17726 22.4736C6.25129 22.6625 6.36238 22.8347 6.50399 22.98C6.64561 23.1253 6.81487 23.2407 7.00182 23.3196C7.18876 23.3984 7.3896 23.439 7.59249 23.439C7.79538 23.439 7.99622 23.3984 8.18316 23.3196C8.37011 23.2407 8.53937 23.1253 8.68099 22.98C8.8226 22.8347 8.93369 22.6625 9.00772 22.4736C9.08174 22.2847 9.11719 22.0829 9.11199 21.88L8.69999 11.479C10.811 10.909 12.388 8.75304 12.388 6.18204V2.01904C12.388 1.75383 12.2826 1.49947 12.0951 1.31194C11.9076 1.1244 11.6532 1.01904 11.388 1.01904" fill="#8B95A1"/>
</svg>
