<svg width="24" height="24" viewBox="0 0 24 24" fill="none" xmlns="http://www.w3.org/2000/svg">
<path fill-rule="evenodd" clip-rule="evenodd" d="M18 13.3H15.913L15.172 15.992C15.1149 16.2052 14.9887 16.3934 14.8131 16.5271C14.6376 16.6609 14.4226 16.7326 14.202 16.731C13.9814 16.7327 13.7665 16.661 13.5911 16.5272C13.4157 16.3935 13.2897 16.2052 13.233 15.992L12 11.514L10.768 15.992C10.7111 16.2051 10.5851 16.3933 10.4097 16.527C10.2343 16.6608 10.0195 16.7325 9.79898 16.731H9.79798C9.57744 16.7326 9.36259 16.6611 9.18707 16.5275C9.01155 16.394 8.88526 16.206 8.82798 15.993L8.08698 13.3H5.99998C5.7878 13.3 5.58432 13.2158 5.43429 13.0657C5.28426 12.9157 5.19998 12.7122 5.19998 12.5C5.19998 12.2879 5.28426 12.0844 5.43429 11.9344C5.58432 11.7843 5.7878 11.7 5.99998 11.7H7.64598L6.98098 9.28104C6.94938 9.17866 6.93867 9.07098 6.94949 8.96438C6.9603 8.85779 6.99242 8.75445 7.04393 8.6605C7.09545 8.56655 7.16531 8.48391 7.24937 8.41747C7.33344 8.35104 7.42999 8.30217 7.5333 8.27376C7.63661 8.24536 7.74457 8.23799 7.85078 8.2521C7.957 8.26622 8.05929 8.30152 8.1516 8.35593C8.2439 8.41033 8.32434 8.48272 8.38814 8.5688C8.45193 8.65488 8.49778 8.7529 8.52298 8.85705L9.79798 13.486L11.03 9.00805C11.0871 8.79488 11.2133 8.60669 11.3888 8.47296C11.5644 8.33922 11.7793 8.26751 12 8.26904C12.458 8.26904 12.848 8.56605 12.97 9.00805L14.202 13.486L15.477 8.85705C15.5332 8.65243 15.6684 8.47853 15.8528 8.37361C15.9442 8.32165 16.0448 8.28819 16.1491 8.27514C16.2534 8.26209 16.3592 8.2697 16.4605 8.29754C16.5618 8.32538 16.6566 8.37291 16.7396 8.4374C16.8225 8.50189 16.892 8.58209 16.9439 8.67342C16.9959 8.76475 17.0293 8.86541 17.0424 8.96967C17.0554 9.07392 17.0478 9.17973 17.02 9.28104L16.354 11.7H18C18.105 11.7 18.2091 11.7207 18.3061 11.7609C18.4032 11.8011 18.4914 11.8601 18.5657 11.9344C18.6399 12.0086 18.6989 12.0968 18.7391 12.1939C18.7793 12.291 18.8 12.395 18.8 12.5C18.8 12.6051 18.7793 12.7091 18.7391 12.8062C18.6989 12.9033 18.6399 12.9914 18.5657 13.0657C18.4914 13.14 18.4032 13.1989 18.3061 13.2391C18.2091 13.2794 18.105 13.3 18 13.3ZM21 1.94604H2.99998C2.76128 1.94604 2.53236 2.04087 2.36358 2.20965C2.1948 2.37843 2.09998 2.60735 2.09998 2.84604C2.09998 3.08474 2.1948 3.31366 2.36358 3.48244C2.53236 3.65122 2.76128 3.74604 2.99998 3.74604V20.846C2.99998 21.1113 3.10533 21.3656 3.29287 21.5532C3.48041 21.7407 3.73476 21.846 3.99998 21.846H20C20.2652 21.846 20.5195 21.7407 20.7071 21.5532C20.8946 21.3656 21 21.1113 21 20.846V3.74604C21.2387 3.74604 21.4676 3.65122 21.6364 3.48244C21.8052 3.31366 21.9 3.08474 21.9 2.84604C21.9 2.60735 21.8052 2.37843 21.6364 2.20965C21.4676 2.04087 21.2387 1.94604 21 1.94604" fill="#8B95A1"/>
</svg>
