<svg width="24" height="24" viewBox="0 0 24 24" fill="none" xmlns="http://www.w3.org/2000/svg">
<path fill-rule="evenodd" clip-rule="evenodd" d="M12 2.26001C6.297 2.26001 1.608 6.60001 1.055 12.157C1.04147 12.2966 1.05729 12.4375 1.10144 12.5706C1.14559 12.7038 1.21709 12.8262 1.31135 12.9301C1.40561 13.0339 1.52055 13.117 1.64879 13.1738C1.77703 13.2306 1.91573 13.26 2.056 13.26H11.257V19.807C11.2491 20.049 11.1474 20.2785 10.9733 20.4469C10.7993 20.6153 10.5667 20.7095 10.3245 20.7095C10.0823 20.7095 9.84967 20.6153 9.67565 20.4469C9.50164 20.2785 9.39992 20.049 9.392 19.807C9.38048 19.5495 9.27009 19.3064 9.08381 19.1283C8.89754 18.9502 8.64973 18.8507 8.392 18.8507C8.13426 18.8507 7.88645 18.9502 7.70018 19.1283C7.5139 19.3064 7.40351 19.5495 7.392 19.807C7.39279 20.5844 7.70195 21.3297 8.25164 21.8794C8.80132 22.4291 9.54663 22.7382 10.324 22.739C11.1015 22.7382 11.8469 22.4291 12.3967 21.8794C12.9466 21.3298 13.2559 20.5845 13.257 19.807V13.26H21.944C22.537 13.26 23.004 12.747 22.945 12.157C22.393 6.60001 17.703 2.26001 12 2.26001Z" fill="#8B95A1"/>
</svg>
