<svg width="24" height="24" viewBox="0 0 24 24" fill="none" xmlns="http://www.w3.org/2000/svg">
<g clip-path="url(#clip0_807_2870)">
<path fill-rule="evenodd" clip-rule="evenodd" d="M8.45998 11.2309C8.2336 10.926 8.02008 10.6117 7.81998 10.2889C7.70345 10.098 7.65485 9.87329 7.68208 9.65128C7.70931 9.42928 7.81077 9.22299 7.96998 9.0659L10.082 6.9539C10.2541 6.78233 10.3576 6.5538 10.3731 6.31128C10.3885 6.06876 10.3149 5.82894 10.166 5.6369L7.08598 1.6599C6.38598 0.754896 5.06498 0.612896 4.20598 1.3669C3.07398 2.3609 1.71298 3.8509 1.31498 5.5219C0.711985 8.0599 1.43299 11.1459 4.65498 15.0359L8.46099 11.2319L8.45998 11.2309ZM22.34 16.9129L18.362 13.8329C18.1698 13.6846 17.9302 13.6114 17.6879 13.6271C17.4457 13.6427 17.2175 13.7461 17.046 13.9179L14.934 16.0309C14.7767 16.1898 14.5703 16.291 14.3484 16.318C14.1264 16.345 13.9018 16.2964 13.711 16.1799C13.177 15.8519 12.357 15.2779 11.34 14.3579L20.849 4.8479C21.071 4.62223 21.1949 4.31798 21.1936 4.00142C21.1923 3.68486 21.0659 3.38162 20.8421 3.15778C20.6183 2.93393 20.315 2.80761 19.9985 2.80632C19.6819 2.80503 19.3776 2.92888 19.152 3.1509L1.15198 21.1509C0.926816 21.3759 0.800265 21.6812 0.800171 21.9995C0.800077 22.3179 0.926448 22.6232 1.15148 22.8484C1.37652 23.0736 1.68179 23.2001 2.00013 23.2002C2.31847 23.2003 2.62382 23.0739 2.84898 22.8489L7.57498 18.1219C12.132 22.3919 15.645 23.3589 18.479 22.6849C20.149 22.2869 21.639 20.9249 22.634 19.7929C23.388 18.9329 23.244 17.6129 22.341 16.9129" fill="#8B95A1"/>
</g>
<defs>
<clipPath id="clip0_807_2870">
<rect width="24" height="24" fill="white"/>
</clipPath>
</defs>
</svg>
