<svg width="24" height="24" viewBox="0 0 24 24" fill="none" xmlns="http://www.w3.org/2000/svg">
<path fill-rule="evenodd" clip-rule="evenodd" d="M20.273 10L21.757 8.51505C21.8436 8.4322 21.9127 8.3329 21.9604 8.22297C22.008 8.11305 22.0333 7.99472 22.0346 7.87491C22.0359 7.75511 22.0133 7.63624 21.9681 7.52529C21.9229 7.41434 21.856 7.31353 21.7713 7.22877C21.6866 7.14402 21.5858 7.07703 21.4749 7.03173C21.364 6.98643 21.2452 6.96373 21.1254 6.96497C21.0056 6.9662 20.8872 6.99135 20.7772 7.03893C20.6673 7.08651 20.5679 7.15556 20.485 7.24205L19 8.72705L17.515 7.24205C17.3438 7.08517 17.1187 7.00043 16.8866 7.00548C16.6545 7.01053 16.4333 7.10499 16.2691 7.26916C16.1049 7.43333 16.0105 7.65454 16.0054 7.88666C16.0004 8.11878 16.0851 8.34389 16.242 8.51505L17.727 10L16.242 11.485C16.1584 11.5686 16.0921 11.6679 16.0469 11.7771C16.0016 11.8863 15.9784 12.0033 15.9784 12.1215C15.9784 12.2398 16.0016 12.3568 16.0469 12.466C16.0921 12.5752 16.1584 12.6745 16.242 12.758C16.3256 12.8416 16.4248 12.9079 16.534 12.9532C16.6432 12.9984 16.7603 13.0217 16.8785 13.0217C16.9967 13.0217 17.1138 12.9984 17.223 12.9532C17.3322 12.9079 17.4314 12.8416 17.515 12.758L19 11.273L20.485 12.758C20.655 12.9208 20.882 13.0105 21.1174 13.0079C21.3527 13.0052 21.5777 12.9106 21.744 12.7441C21.9104 12.5776 22.0049 12.3525 22.0073 12.1172C22.0097 11.8819 21.9199 11.6549 21.757 11.485L20.273 10ZM10 11.456C11.1548 11.456 12.2622 10.9973 13.0787 10.1808C13.8953 9.36426 14.354 8.2568 14.354 7.10205C14.354 5.94729 13.8953 4.83984 13.0787 4.0233C12.2622 3.20677 11.1548 2.74805 10 2.74805C8.84525 2.74805 7.7378 3.20677 6.92126 4.0233C6.10473 4.83984 5.64601 5.94729 5.64601 7.10205C5.64601 8.2568 6.10473 9.36426 6.92126 10.1808C7.7378 10.9973 8.84525 11.456 10 11.456M10 12.788C3.73101 12.788 1.29401 16.777 1.29401 18.633C1.29401 20.488 6.48301 20.982 10 20.982C13.517 20.982 18.706 20.488 18.706 18.632C18.706 16.777 16.269 12.788 10 12.788" fill="#8B95A1"/>
</svg>
