<svg width="24" height="24" viewBox="0 0 24 24" fill="none" xmlns="http://www.w3.org/2000/svg">
<g clip-path="url(#clip0_807_2845)">
<path fill-rule="evenodd" clip-rule="evenodd" d="M21.316 2.68396C20.1728 1.54338 18.6239 0.902832 17.009 0.902832C15.3941 0.902832 13.8452 1.54338 12.702 2.68396L10.649 4.73596C10.455 4.94475 10.3495 5.22064 10.3548 5.5056C10.36 5.79056 10.4755 6.06238 10.6771 6.26391C10.8786 6.46544 11.1504 6.58097 11.4354 6.5862C11.7203 6.59143 11.9962 6.48596 12.205 6.29196L14.258 4.23996C14.9882 3.51145 15.9775 3.10232 17.009 3.10232C18.0405 3.10232 19.0298 3.51145 19.76 4.23996C20.1225 4.60035 20.4099 5.02905 20.6056 5.50127C20.8013 5.97348 20.9013 6.47981 20.9 6.99096C20.9014 7.50212 20.8013 8.00847 20.6057 8.48069C20.41 8.95291 20.1225 9.38161 19.76 9.74196L16.159 13.343C14.69 14.813 12.127 14.813 10.657 13.343C10.4137 13.1004 10.2035 12.8267 10.032 12.529C9.88667 12.2759 9.64677 12.091 9.36509 12.0149C9.08341 11.9387 8.78302 11.9776 8.53001 12.123C8.27699 12.2683 8.09207 12.5082 8.01593 12.7899C7.93979 13.0716 7.97867 13.3719 8.12401 13.625C8.39101 14.088 8.71901 14.517 9.10101 14.899C9.66539 15.4662 10.3366 15.9159 11.0759 16.2222C11.8152 16.5284 12.6078 16.685 13.408 16.683C14.2082 16.6851 15.0009 16.5285 15.7402 16.2223C16.4795 15.9161 17.1507 15.4663 17.715 14.899L21.316 11.299C21.8835 10.7343 22.3334 10.0628 22.6396 9.32314C22.9458 8.58351 23.1023 7.79048 23.1 6.98996C23.1021 6.18976 22.9456 5.39709 22.6394 4.65779C22.3331 3.9185 21.8833 3.24728 21.316 2.68296" fill="#8B95A1"/>
<path fill-rule="evenodd" clip-rule="evenodd" d="M11.795 17.7079L9.74201 19.7609C9.01156 20.4889 8.02231 20.8977 6.99101 20.8977C5.95971 20.8977 4.97047 20.4889 4.24001 19.7609C3.87775 19.4004 3.59049 18.9716 3.39482 18.4995C3.19915 18.0273 3.09896 17.521 3.10001 17.0099C3.10001 15.9709 3.50501 14.9939 4.24001 14.2599L7.84101 10.6579C8.26398 10.2359 8.77837 9.91675 9.34441 9.72532C9.91044 9.53388 10.5129 9.47524 11.1053 9.55393C11.6976 9.63262 12.2639 9.84654 12.7603 10.1791C13.2567 10.5117 13.6699 10.9541 13.968 11.4719C14.04 11.5972 14.1359 11.7071 14.2503 11.7953C14.3648 11.8835 14.4955 11.9483 14.6349 11.986C14.7744 12.0237 14.9199 12.0336 15.0632 12.015C15.2065 11.9965 15.3447 11.9499 15.47 11.8779C15.5953 11.806 15.7052 11.71 15.7934 11.5956C15.8816 11.4812 15.9464 11.3505 15.9841 11.211C16.0218 11.0715 16.0316 10.926 16.0131 10.7827C15.9946 10.6394 15.948 10.5012 15.876 10.3759C15.4091 9.56559 14.7621 8.87348 13.985 8.3531C13.208 7.83273 12.3216 7.49803 11.3945 7.37488C10.4675 7.25174 9.52447 7.34344 8.63849 7.64291C7.75251 7.94237 6.94727 8.44158 6.28501 9.10193L2.68401 12.7029C2.11677 13.2673 1.66703 13.9385 1.36082 14.6778C1.0546 15.4171 0.897983 16.2097 0.900013 17.0099C0.900013 18.6369 1.53401 20.1669 2.68401 21.3169C3.24904 21.8831 3.92047 22.3319 4.65964 22.6376C5.39881 22.9432 6.19114 23.0997 6.99101 23.0979C8.55101 23.0979 10.11 22.5039 11.298 21.3179L13.351 19.2649C13.545 19.0561 13.6505 18.7803 13.6453 18.4953C13.64 18.2103 13.5245 17.9385 13.323 17.737C13.1214 17.5354 12.8496 17.4199 12.5646 17.4147C12.2797 17.4095 12.0038 17.5149 11.795 17.7089" fill="#8B95A1"/>
</g>
<defs>
<clipPath id="clip0_807_2845">
<rect width="24" height="24" fill="white"/>
</clipPath>
</defs>
</svg>
