<svg width="24" height="24" viewBox="0 0 24 24" fill="none" xmlns="http://www.w3.org/2000/svg">
<path d="M20.71 4.00003C20.71 3.39003 20.22 2.91003 19.61 2.91003H19.6C18.99 2.91003 18.5 3.41003 18.51 4.02003L18.55 12.6C18.55 13 18.4 13.38 18.11 13.66C17.83 13.94 17.45 14.1 17.05 14.1H5.98998L9.91998 10.17C10.35 9.74003 10.35 9.04003 9.91998 8.61003C9.48998 8.18003 8.79998 8.18003 8.35998 8.61003L2.54998 14.42C2.33998 14.63 2.22998 14.91 2.22998 15.2C2.22998 15.49 2.34998 15.77 2.54998 15.98L8.35998 21.79C8.56998 22 8.85998 22.11 9.13998 22.11C9.41998 22.11 9.69998 22 9.91998 21.79C10.35 21.36 10.35 20.66 9.91998 20.24L5.98998 16.31H17.06C18.05 16.31 18.98 15.92 19.68 15.22C20.38 14.52 20.76 13.59 20.76 12.6L20.71 4.00003Z" fill="#8B95A1"/>
</svg>
