<svg width="24" height="24" viewBox="0 0 24 24" fill="none" xmlns="http://www.w3.org/2000/svg">
<path fill-rule="evenodd" clip-rule="evenodd" d="M5.32502 7.32495C5.80241 7.32495 6.26025 7.51459 6.59782 7.85216C6.93538 8.18972 7.12502 8.64756 7.12502 9.12495C7.12502 9.60234 6.93538 10.0602 6.59782 10.3977C6.26025 10.7353 5.80241 10.925 5.32502 10.925C4.84763 10.925 4.3898 10.7353 4.05223 10.3977C3.71467 10.0602 3.52502 9.60234 3.52502 9.12495C3.52502 8.64756 3.71467 8.18972 4.05223 7.85216C4.3898 7.51459 4.84763 7.32495 5.32502 7.32495M12.125 10.925C11.125 10.925 10.325 10.125 10.325 9.12495C10.325 8.12495 11.125 7.32495 12.125 7.32495C13.125 7.32495 13.925 8.12495 13.925 9.12495C13.925 10.125 13.125 10.925 12.125 10.925ZM18.925 10.925C17.925 10.925 17.125 10.125 17.125 9.12495C17.125 8.12495 17.925 7.32495 18.925 7.32495C19.925 7.32495 20.725 8.12495 20.725 9.12495C20.725 10.125 19.925 10.925 18.925 10.925ZM5.32502 13.325C5.80241 13.325 6.26025 13.5146 6.59782 13.8522C6.93538 14.1897 7.12502 14.6476 7.12502 15.125C7.12502 15.6023 6.93538 16.0602 6.59782 16.3977C6.26025 16.7353 5.80241 16.925 5.32502 16.925C4.84763 16.925 4.3898 16.7353 4.05223 16.3977C3.71467 16.0602 3.52502 15.6023 3.52502 15.125C3.52502 14.6476 3.71467 14.1897 4.05223 13.8522C4.3898 13.5146 4.84763 13.325 5.32502 13.325M12.125 16.925C11.125 16.925 10.325 16.125 10.325 15.125C10.325 14.125 11.125 13.325 12.125 13.325C13.125 13.325 13.925 14.125 13.925 15.125C13.925 16.125 13.125 16.925 12.125 16.925ZM18.925 16.925C17.925 16.925 17.125 16.125 17.125 15.125C17.125 14.125 17.925 13.325 18.925 13.325C19.925 13.325 20.725 14.125 20.725 15.125C20.725 16.125 19.925 16.925 18.925 16.925Z" fill="#8B95A1"/>
</svg>
