<svg width="24" height="24" viewBox="0 0 24 24" fill="none" xmlns="http://www.w3.org/2000/svg">
<path fill-rule="evenodd" clip-rule="evenodd" d="M16.517 2.14996L6.035 7.53696H2.921C2.351 7.53696 1.888 7.99996 1.888 8.56996V15.43C1.888 16 2.351 16.463 2.921 16.463H6.035L16.517 21.85C16.6695 21.9283 16.8395 21.9661 17.0109 21.9598C17.1822 21.9535 17.349 21.9032 17.4953 21.8139C17.6416 21.7245 17.7624 21.599 17.8463 21.4495C17.9301 21.3 17.9741 21.1314 17.974 20.96V3.03996C17.9741 2.86853 17.9301 2.69995 17.8463 2.55042C17.7624 2.40088 17.6416 2.27541 17.4953 2.18605C17.349 2.09668 17.1822 2.04643 17.0109 2.04011C16.8395 2.03379 16.6695 2.07162 16.517 2.14996ZM21.236 9.16696H19.28V14.833H21.235C21.959 14.833 22.545 14.246 22.545 13.522V10.479C22.545 9.75396 21.959 9.16696 21.235 9.16696" fill="#8B95A1"/>
</svg>
