<svg width="24" height="24" viewBox="0 0 24 24" fill="none" xmlns="http://www.w3.org/2000/svg">
<path fill-rule="evenodd" clip-rule="evenodd" d="M9.435 4.48194C9.43579 3.80191 9.70629 3.14995 10.1871 2.66909C10.668 2.18823 11.32 1.91774 12 1.91694C12.6801 1.91774 13.3322 2.1882 13.8132 2.66903C14.2942 3.14986 14.5649 3.80181 14.566 4.48194H9.436H9.435ZM21.466 18.0239L19.506 5.32994C19.4697 5.09391 19.3501 4.87866 19.1689 4.72312C18.9877 4.56758 18.7568 4.48203 18.518 4.48194H16.366C16.3647 3.32451 15.9042 2.21487 15.0857 1.39653C14.2672 0.578193 13.1574 0.118002 12 0.116943C10.8427 0.118267 9.73325 0.578574 8.91494 1.39688C8.09663 2.21519 7.63632 3.32468 7.635 4.48194H5.483C5.24419 4.48203 5.0133 4.56758 4.83208 4.72312C4.65087 4.87866 4.5313 5.09391 4.495 5.32994L2.535 18.0239C2.46876 18.4516 2.49587 18.8885 2.61445 19.3047C2.73304 19.7209 2.94029 20.1065 3.22198 20.435C3.50367 20.7636 3.85312 21.0272 4.24634 21.208C4.63957 21.3887 5.06724 21.4821 5.5 21.4819H18.502C18.9347 21.482 19.3623 21.3884 19.7554 21.2076C20.1486 21.0269 20.498 20.7632 20.7796 20.4347C21.0613 20.1062 21.2685 19.7207 21.3872 19.3046C21.5058 18.8884 21.5331 18.4516 21.467 18.0239H21.466Z" fill="#8B95A1"/>
</svg>
