<svg width="24" height="24" viewBox="0 0 24 24" fill="none" xmlns="http://www.w3.org/2000/svg">
<path fill-rule="evenodd" clip-rule="evenodd" d="M23.436 8.45505C23.3524 8.37144 23.2532 8.30512 23.144 8.25988C23.0348 8.21463 22.9177 8.19134 22.7995 8.19134C22.6813 8.19134 22.5642 8.21463 22.455 8.25988C22.3458 8.30512 22.2466 8.37144 22.163 8.45505L18.982 11.637L17.436 10.091C17.2672 9.92224 17.0382 9.8274 16.7995 9.8274C16.5608 9.8274 16.3318 9.92224 16.163 10.091C15.9942 10.2599 15.8994 10.4888 15.8994 10.7275C15.8994 10.9663 15.9942 11.1952 16.163 11.364L18.981 14.182L23.435 9.72805C23.5186 9.64447 23.5849 9.54524 23.6302 9.43603C23.6754 9.32682 23.6987 9.20976 23.6987 9.09155C23.6987 8.97333 23.6754 8.85628 23.6302 8.74706C23.5849 8.63785 23.5186 8.53862 23.435 8.45505M10 11.456C11.1548 11.456 12.2622 10.9973 13.0787 10.1808C13.8953 9.36426 14.354 8.2568 14.354 7.10205C14.354 5.94729 13.8953 4.83984 13.0787 4.0233C12.2622 3.20677 11.1548 2.74805 10 2.74805C8.84525 2.74805 7.7378 3.20677 6.92126 4.0233C6.10473 4.83984 5.64601 5.94729 5.64601 7.10205C5.64601 8.2568 6.10473 9.36426 6.92126 10.1808C7.7378 10.9973 8.84525 11.456 10 11.456M10 12.788C3.73101 12.788 1.29401 16.777 1.29401 18.633C1.29401 20.488 6.48301 20.982 10 20.982C13.517 20.982 18.706 20.488 18.706 18.632C18.706 16.777 16.269 12.788 10 12.788" fill="#8B95A1"/>
</svg>
