<svg width="24" height="24" viewBox="0 0 24 24" fill="none" xmlns="http://www.w3.org/2000/svg">
<path fill-rule="evenodd" clip-rule="evenodd" d="M12 18.2669C10.6092 18.2653 9.27574 17.7121 8.29227 16.7286C7.3088 15.7452 6.75559 14.4117 6.754 13.0209C6.75532 11.6299 7.30842 10.2962 8.29192 9.31253C9.27542 8.32884 10.609 7.77549 12 7.7739C13.391 7.77549 14.7246 8.32884 15.7081 9.31253C16.6916 10.2962 17.2447 11.6299 17.246 13.0209C17.2444 14.4117 16.6912 15.7452 15.7077 16.7286C14.7243 17.7121 13.3908 18.2653 12 18.2669M20.113 5.1359H17.159L16.046 2.9669C15.8695 2.62354 15.6018 2.33547 15.2722 2.13435C14.9427 1.93323 14.5641 1.82685 14.178 1.8269H9.765C9.37133 1.82686 8.98558 1.93747 8.65175 2.14611C8.31792 2.35475 8.04946 2.65303 7.877 3.0069L6.841 5.1359H3.887C3.55598 5.13577 3.22818 5.20086 2.92233 5.32744C2.61647 5.45402 2.33855 5.63962 2.10444 5.87364C1.87033 6.10766 1.68462 6.38551 1.55792 6.69131C1.43121 6.99712 1.366 7.32489 1.366 7.6559V19.2569C1.366 19.5879 1.43121 19.9157 1.55792 20.2215C1.68462 20.5273 1.87033 20.8052 2.10444 21.0392C2.33855 21.2732 2.61647 21.4588 2.92233 21.5854C3.22818 21.712 3.55598 21.777 3.887 21.7769H20.113C20.444 21.777 20.7718 21.712 21.0777 21.5854C21.3835 21.4588 21.6614 21.2732 21.8956 21.0392C22.1297 20.8052 22.3154 20.5273 22.4421 20.2215C22.5688 19.9157 22.634 19.5879 22.634 19.2569V7.6559C22.634 7.32489 22.5688 6.99712 22.4421 6.69131C22.3154 6.38551 22.1297 6.10766 21.8956 5.87364C21.6614 5.63962 21.3835 5.45402 21.0777 5.32744C20.7718 5.20086 20.444 5.13577 20.113 5.1359" fill="#8B95A1"/>
<path fill-rule="evenodd" clip-rule="evenodd" d="M12 9.66382C11.1104 9.66488 10.2575 10.0188 9.62848 10.648C8.99949 11.2772 8.6458 12.1302 8.645 13.0198C8.64553 13.9096 8.99914 14.7627 9.62819 15.3919C10.2572 16.0212 11.1103 16.375 12 16.3758C12.8897 16.375 13.7428 16.0212 14.3718 15.3919C15.0009 14.7627 15.3545 13.9096 15.355 13.0198C15.3542 12.1302 15.0005 11.2772 14.3715 10.648C13.7425 10.0188 12.8897 9.66488 12 9.66382Z" fill="#8B95A1"/>
</svg>
