<svg width="24" height="24" viewBox="0 0 24 24" fill="none" xmlns="http://www.w3.org/2000/svg">
<path fill-rule="evenodd" clip-rule="evenodd" d="M12.726 0.766041L20.201 8.65604C20.2683 8.72699 20.3133 8.81611 20.3304 8.91236C20.3476 9.00861 20.3361 9.10778 20.2975 9.19759C20.2588 9.2874 20.1947 9.36392 20.1131 9.41768C20.0314 9.47143 19.9358 9.50007 19.838 9.50004H4.16201C4.06424 9.50007 3.96861 9.47143 3.88695 9.41768C3.80529 9.36392 3.74117 9.2874 3.70255 9.19759C3.66392 9.10778 3.65247 9.00861 3.66961 8.91236C3.68676 8.81611 3.73175 8.72699 3.79901 8.65604L11.274 0.766041C11.3675 0.66739 11.48 0.588819 11.6048 0.535124C11.7297 0.481428 11.8641 0.453735 12 0.453735C12.1359 0.453735 12.2703 0.481428 12.3952 0.535124C12.52 0.588819 12.6326 0.66739 12.726 0.766041V0.766041ZM12.726 23.234L20.201 15.344C20.2683 15.2731 20.3133 15.184 20.3304 15.0877C20.3476 14.9915 20.3361 14.8923 20.2975 14.8025C20.2588 14.7127 20.1947 14.6362 20.1131 14.5824C20.0314 14.5286 19.9358 14.5 19.838 14.5H4.16201C4.06424 14.5 3.96861 14.5286 3.88695 14.5824C3.80529 14.6362 3.74117 14.7127 3.70255 14.8025C3.66392 14.8923 3.65247 14.9915 3.66961 15.0877C3.68676 15.184 3.73175 15.2731 3.79901 15.344L11.274 23.234C11.3675 23.3327 11.48 23.4113 11.6048 23.465C11.7297 23.5187 11.8641 23.5463 12 23.5463C12.1359 23.5463 12.2703 23.5187 12.3952 23.465C12.52 23.4113 12.6326 23.3327 12.726 23.234Z" fill="#8B95A1"/>
</svg>
