<svg width="24" height="24" viewBox="0 0 24 24" fill="none" xmlns="http://www.w3.org/2000/svg">
<path fill-rule="evenodd" clip-rule="evenodd" d="M17.636 3.686C17.4788 3.33305 17.2226 3.03321 16.8986 2.82273C16.5745 2.61226 16.1964 2.50017 15.81 2.5H8.19003C7.80362 2.50017 7.42554 2.61226 7.10149 2.82273C6.77744 3.03321 6.5213 3.33305 6.36403 3.686L4.68403 7.453H19.316L17.636 3.686V3.686ZM17.58 15.47C17.3929 15.47 17.2076 15.4331 17.0347 15.3615C16.8618 15.2899 16.7047 15.185 16.5724 15.0526C16.4401 14.9203 16.3351 14.7632 16.2635 14.5903C16.1919 14.4174 16.155 14.2321 16.155 14.045C16.155 13.8579 16.1919 13.6726 16.2635 13.4997C16.3351 13.3268 16.4401 13.1697 16.5724 13.0374C16.7047 12.905 16.8618 12.8001 17.0347 12.7285C17.2076 12.6569 17.3929 12.62 17.58 12.62C17.958 12.62 18.3204 12.7701 18.5877 13.0374C18.8549 13.3046 19.005 13.6671 19.005 14.045C19.005 14.4229 18.8549 14.7854 18.5877 15.0526C18.3204 15.3199 17.958 15.47 17.58 15.47M6.41803 15.47C6.2309 15.47 6.04559 15.4331 5.8727 15.3615C5.69982 15.2899 5.54273 15.185 5.4104 15.0526C5.27808 14.9203 5.17311 14.7632 5.1015 14.5903C5.02989 14.4174 4.99303 14.2321 4.99303 14.045C4.99303 13.8579 5.02989 13.6726 5.1015 13.4997C5.17311 13.3268 5.27808 13.1697 5.4104 13.0374C5.54273 12.905 5.69982 12.8001 5.8727 12.7285C6.04559 12.6569 6.2309 12.62 6.41803 12.62C6.79596 12.62 7.15842 12.7701 7.42566 13.0374C7.6929 13.3046 7.84303 13.6671 7.84303 14.045C7.84303 14.4229 7.6929 14.7854 7.42566 15.0526C7.15842 15.3199 6.79596 15.47 6.41803 15.47M19.982 8.953H4.01703C3.4866 8.953 2.97789 9.16371 2.60282 9.53879C2.22774 9.91386 2.01703 10.4226 2.01703 10.953V20.5C2.01703 20.7652 2.12239 21.0196 2.30992 21.2071C2.49746 21.3946 2.75181 21.5 3.01703 21.5H5.46103C5.72625 21.5 5.9806 21.3946 6.16814 21.2071C6.35567 21.0196 6.46103 20.7652 6.46103 20.5V19.136H17.539V20.5C17.539 20.7652 17.6444 21.0196 17.8319 21.2071C18.0195 21.3946 18.2738 21.5 18.539 21.5H20.983C21.2482 21.5 21.5026 21.3946 21.6901 21.2071C21.8777 21.0196 21.983 20.7652 21.983 20.5V10.952C21.983 9.847 21.089 8.952 19.983 8.952" fill="#8B95A1"/>
</svg>
