<svg width="24" height="24" viewBox="0 0 24 24" fill="none" xmlns="http://www.w3.org/2000/svg">
<path fill-rule="evenodd" clip-rule="evenodd" d="M23 10.1H20.9V8.00005C20.8922 7.76668 20.794 7.54546 20.6262 7.38313C20.4584 7.22079 20.234 7.13004 20.0005 7.13004C19.767 7.13004 19.5426 7.22079 19.3748 7.38313C19.207 7.54546 19.1088 7.76668 19.101 8.00005V10.1H17C16.7613 10.1 16.5324 10.1949 16.3636 10.3637C16.1948 10.5324 16.1 10.7614 16.1 11C16.1 11.2387 16.1948 11.4677 16.3636 11.6364C16.5324 11.8052 16.7613 11.9 17 11.9H19.101V14C19.097 14.1207 19.1173 14.2409 19.1607 14.3536C19.2041 14.4662 19.2697 14.569 19.3536 14.6557C19.4375 14.7425 19.538 14.8115 19.6492 14.8586C19.7603 14.9058 19.8798 14.93 20.0005 14.93C20.1212 14.93 20.2407 14.9058 20.3518 14.8586C20.463 14.8115 20.5635 14.7425 20.6474 14.6557C20.7313 14.569 20.797 14.4662 20.8403 14.3536C20.8837 14.2409 20.904 14.1207 20.9 14V11.9H23C23.2387 11.9 23.4676 11.8052 23.6364 11.6364C23.8052 11.4677 23.9 11.2387 23.9 11C23.9 10.7614 23.8052 10.5324 23.6364 10.3637C23.4676 10.1949 23.2387 10.1 23 10.1M10 11.456C11.1548 11.456 12.2622 10.9973 13.0787 10.1808C13.8953 9.36426 14.354 8.2568 14.354 7.10205C14.354 5.94729 13.8953 4.83984 13.0787 4.0233C12.2622 3.20677 11.1548 2.74805 10 2.74805C8.84525 2.74805 7.7378 3.20677 6.92126 4.0233C6.10473 4.83984 5.64601 5.94729 5.64601 7.10205C5.64601 8.2568 6.10473 9.36426 6.92126 10.1808C7.7378 10.9973 8.84525 11.456 10 11.456M10 12.788C3.73101 12.788 1.29401 16.777 1.29401 18.633C1.29401 20.488 6.48301 20.982 10 20.982C13.517 20.982 18.706 20.488 18.706 18.632C18.706 16.777 16.269 12.788 10 12.788" fill="#8B95A1"/>
</svg>
