<svg width="24" height="24" viewBox="0 0 24 24" fill="none" xmlns="http://www.w3.org/2000/svg">
<path fill-rule="evenodd" clip-rule="evenodd" d="M10.5 18.86C10.5001 19.0571 10.5391 19.2523 10.6147 19.4343C10.6902 19.6164 10.8009 19.7818 10.9404 19.9211C11.0798 20.0603 11.2454 20.1708 11.4275 20.2461C11.6097 20.3214 11.8049 20.3601 12.002 20.36C12.1991 20.3598 12.3943 20.3209 12.5763 20.2453C12.7584 20.1698 12.9238 20.0591 13.0631 19.9196C13.2024 19.7802 13.3128 19.6146 13.3881 19.4325C13.4634 19.2503 13.5021 19.0551 13.502 18.858C13.5019 18.4599 13.3436 18.0782 13.062 17.7968C12.7804 17.5154 12.3986 17.3573 12.0005 17.3575C11.6024 17.3576 11.2207 17.5159 10.9393 17.7975C10.6579 18.079 10.4999 18.4609 10.5 18.859M22.112 9.99798C21.801 9.99798 21.491 9.88298 21.249 9.65198C18.7596 7.27007 15.4454 5.94349 12 5.94998C8.55501 5.94375 5.24113 7.2703 2.75201 9.65198C2.51212 9.88086 2.19114 10.0051 1.85967 9.99729C1.5282 9.98951 1.21339 9.85037 0.984511 9.61048C0.755629 9.37059 0.631417 9.0496 0.6392 8.71813C0.646983 8.38666 0.786123 8.07186 1.02601 7.84298C3.97955 5.01659 7.912 3.44239 12 3.44998C16.106 3.44998 20.004 5.00998 22.973 7.84298C23.1539 8.01528 23.2789 8.2378 23.3321 8.48186C23.3853 8.72591 23.3641 8.9803 23.2714 9.21222C23.1786 9.44413 23.0185 9.64294 22.8117 9.78299C22.6048 9.92305 22.3608 9.99793 22.111 9.99798" fill="#8B95A1"/>
<path fill-rule="evenodd" clip-rule="evenodd" d="M18.744 13.366C18.439 13.366 18.133 13.255 17.892 13.03C16.2938 11.5366 14.1873 10.7072 12 10.71C9.81276 10.7075 7.7064 11.5369 6.10802 13.03C5.86535 13.2559 5.54285 13.3762 5.21147 13.3644C4.8801 13.3526 4.56698 13.2096 4.34102 12.967C4.11506 12.7243 3.99475 12.4018 4.00656 12.0704C4.01838 11.739 4.16135 11.4259 4.40402 11.2C6.46458 9.27506 9.18024 8.2061 12 8.20997C14.829 8.20997 17.527 9.27297 19.596 11.2C19.7797 11.3712 19.9076 11.5938 19.9631 11.8388C20.0185 12.0837 19.9989 12.3397 19.9069 12.5734C19.8149 12.807 19.6547 13.0076 19.4471 13.149C19.2395 13.2903 18.9942 13.366 18.743 13.366" fill="#8B95A1"/>
<path fill-rule="evenodd" clip-rule="evenodd" d="M15.434 16.675C15.142 16.675 14.849 16.573 14.612 16.365C13.166 15.101 10.834 15.101 9.38902 16.365C9.26612 16.477 9.12212 16.5634 8.96544 16.619C8.80876 16.6746 8.64255 16.6985 8.47655 16.6891C8.31055 16.6797 8.14809 16.6373 7.99868 16.5643C7.84927 16.4914 7.71592 16.3894 7.60643 16.2642C7.49694 16.1391 7.41351 15.9934 7.36103 15.8356C7.30854 15.6779 7.28806 15.5112 7.30078 15.3454C7.3135 15.1797 7.35917 15.0181 7.4351 14.8702C7.51104 14.7223 7.61572 14.591 7.74302 14.484C8.92138 13.4523 10.4343 12.8835 12.0005 12.8835C13.5667 12.8835 15.0797 13.4523 16.258 14.484C16.4492 14.6516 16.5847 14.8735 16.6466 15.1201C16.7084 15.3667 16.6935 15.6263 16.604 15.8642C16.5145 16.1022 16.3545 16.3072 16.1455 16.4518C15.9364 16.5965 15.6882 16.674 15.434 16.674" fill="#8B95A1"/>
</svg>
